# xmcd
#
# Track frame offsets:
#       150
#       20895
#       39266
#       54485
#       68528
#       92278
#       110678
#       123877
#       136680
#       158873
#       174377
#       194223
#       214464
#       226934
#       244707
#       268477
#
# Disc length: 3792 seconds
#
# Revision: 0
# Processed by: cddbd v1.5.1PL0 Copyright (c) Steve Scherf et al.
# Submitted via: CD-DA_X-Tractor v0.24
#
DISCID=e10ece10
DTITLE=Alice Spencer - Live at Riddles
DYEAR=2002
DGENRE=
TTITLE0=Oh Daddy
TTITLE1=Mama's Got the Blues
TTITLE2=Come in My Kitchen
TTITLE3=Stardust
TTITLE4=I've Got A Feeling I'm Fallin
TTITLE5=World of Trouble
TTITLE6=Remember
TTITLE7=Black Cat Blues
TTITLE8=On the Road Again
TTITLE9=St. Louis Blues
TTITLE10=Jumpin' the Blues
TTITLE11=Oklahoma Hills
TTITLE12=After Midnight
TTITLE13=Crazy
TTITLE14=Milk Cow Blues
TTITLE15=Remington's Ride
EXTD=
EXTT0=
EXTT1=
EXTT2=
EXTT3=
EXTT4=
EXTT5=
EXTT6=
EXTT7=
EXTT8=
EXTT9=
EXTT10=
EXTT11=
EXTT12=
EXTT13=
EXTT14=
EXTT15=
PLAYORDER=
